<?xml version="1.0" encoding="UTF-8"?>
<!DOCTYPE svg PUBLIC "-//W3C//DTD SVG 1.1//EN" "http://www.w3.org/Graphics/SVG/1.1/DTD/svg11.dtd">
<svg xmlns="http://www.w3.org/2000/svg" version="1.1" width="277px" height="63px" style="shape-rendering:geometricPrecision; text-rendering:geometricPrecision; image-rendering:optimizeQuality; fill-rule:evenodd; clip-rule:evenodd" xmlns:xlink="http://www.w3.org/1999/xlink">
<g><path style="opacity:1" fill="#fbfcfd" d="M -0.5,-0.5 C 91.8333,-0.5 184.167,-0.5 276.5,-0.5C 276.5,20.5 276.5,41.5 276.5,62.5C 184.167,62.5 91.8333,62.5 -0.5,62.5C -0.5,41.5 -0.5,20.5 -0.5,-0.5 Z"/></g>
<g><path style="opacity:1" fill="#2b4abd" d="M 21.5,31.5 C 17.6877,30.6762 13.6877,30.1762 9.5,30C 13.5034,28.9002 17.5034,28.0669 21.5,27.5C 22.4834,23.7016 22.8168,19.7016 22.5,15.5C 21.325,15.719 20.325,15.3857 19.5,14.5C 22.1667,13.1667 24.8333,13.1667 27.5,14.5C 26.2191,19.4889 25.5524,24.6556 25.5,30C 25.5524,35.3444 26.2191,40.5111 27.5,45.5C 24.8333,46.8333 22.1667,46.8333 19.5,45.5C 20.325,44.6143 21.325,44.281 22.5,44.5C 22.8182,39.9677 22.4849,35.6344 21.5,31.5 Z"/></g>
<g><path style="opacity:1" fill="#2a4abd" d="M 170.5,13.5 C 171.496,13.4142 172.329,13.7476 173,14.5C 173.667,24.8333 173.667,35.1667 173,45.5C 172.329,46.2524 171.496,46.5858 170.5,46.5C 164.463,46.8293 158.463,46.4959 152.5,45.5C 153.325,44.6143 154.325,44.281 155.5,44.5C 155.5,34.8333 155.5,25.1667 155.5,15.5C 154.325,15.719 153.325,15.3857 152.5,14.5C 158.463,13.5041 164.463,13.1707 170.5,13.5 Z"/></g>
<g><path style="opacity:1" fill="#b2bbe6" d="M 2.5,15.5 C 3.5,15.5 4.5,15.5 5.5,15.5C 5.5,25.1667 5.5,34.8333 5.5,44.5C 4.5,44.5 3.5,44.5 2.5,44.5C 3.77593,39.9155 4.4426,35.0821 4.5,30C 4.4426,24.9179 3.77593,20.0845 2.5,15.5 Z"/></g>
<g><path style="opacity:1" fill="#9aa7df" d="M 21.5,31.5 C 22.4849,35.6344 22.8182,39.9677 22.5,44.5C 21.325,44.281 20.325,44.6143 19.5,45.5C 22.1667,46.8333 24.8333,46.8333 27.5,45.5C 26.2191,40.5111 25.5524,35.3444 25.5,30C 25.5524,24.6556 26.2191,19.4889 27.5,14.5C 24.8333,13.1667 22.1667,13.1667 19.5,14.5C 20.325,15.3857 21.325,15.719 22.5,15.5C 22.8168,19.7016 22.4834,23.7016 21.5,27.5C 21.5,23.8333 21.5,20.1667 21.5,16.5C 20.5,16.5 19.5,16.5 18.5,16.5C 18.5,15.1667 18.5,13.8333 18.5,12.5C 21.8333,12.5 25.1667,12.5 28.5,12.5C 25.8333,24.1667 25.8333,35.8333 28.5,47.5C 25.1667,47.5 21.8333,47.5 18.5,47.5C 18.5,46.1667 18.5,44.8333 18.5,43.5C 19.5,43.5 20.5,43.5 21.5,43.5C 21.5,39.5 21.5,35.5 21.5,31.5 Z"/></g>
<g><path style="opacity:1" fill="#8899d9" d="M 170.5,13.5 C 164.463,13.1707 158.463,13.5041 152.5,14.5C 153.325,15.3857 154.325,15.719 155.5,15.5C 155.5,25.1667 155.5,34.8333 155.5,44.5C 154.325,44.281 153.325,44.6143 152.5,45.5C 158.463,46.4959 164.463,46.8293 170.5,46.5C 164.355,47.4902 158.022,47.8235 151.5,47.5C 151.5,46.1667 151.5,44.8333 151.5,43.5C 152.5,43.5 153.5,43.5 154.5,43.5C 154.5,34.5 154.5,25.5 154.5,16.5C 153.5,16.5 152.5,16.5 151.5,16.5C 151.5,15.1667 151.5,13.8333 151.5,12.5C 158.022,12.1765 164.355,12.5098 170.5,13.5 Z"/></g>
<g><path style="opacity:1" fill="#fafbfd" d="M 158.5,16.5 C 162.167,16.5 165.833,16.5 169.5,16.5C 169.5,25.5 169.5,34.5 169.5,43.5C 165.833,43.5 162.167,43.5 158.5,43.5C 158.5,34.5 158.5,25.5 158.5,16.5 Z"/></g>
<g><path style="opacity:1" fill="#b0bae6" d="M 158.5,16.5 C 162.298,15.5166 166.298,15.1832 170.5,15.5C 170.5,25.1667 170.5,34.8333 170.5,44.5C 166.298,44.8168 162.298,44.4834 158.5,43.5C 162.167,43.5 165.833,43.5 169.5,43.5C 169.5,34.5 169.5,25.5 169.5,16.5C 165.833,16.5 162.167,16.5 158.5,16.5 Z"/></g>
<g><path style="opacity:1" fill="#a5b0e2" d="M 225.5,16.5 C 226.468,18.6074 226.802,20.9407 226.5,23.5C 227.791,23.2627 228.791,23.596 229.5,24.5C 228.167,24.5 226.833,24.5 225.5,24.5C 225.5,21.8333 225.5,19.1667 225.5,16.5 Z"/></g>
<g><path style="opacity:1" fill="#c0c8ea" d="M 248.5,24.5 C 243.737,24.2256 239.07,24.559 234.5,25.5C 236.397,24.1952 238.731,23.5286 241.5,23.5C 244.025,23.5034 246.359,23.8367 248.5,24.5 Z"/></g>
<g><path style="opacity:1" fill="#2e4dbe" d="M 225.5,16.5 C 225.5,19.1667 225.5,21.8333 225.5,24.5C 226.833,24.5 228.167,24.5 229.5,24.5C 229.5,25.5 229.5,26.5 229.5,27.5C 228.167,27.5 226.833,27.5 225.5,27.5C 225.334,32.8437 225.501,38.1771 226,43.5C 227.011,44.3366 228.178,44.67 229.5,44.5C 228.448,46.256 226.781,46.9227 224.5,46.5C 223.883,46.3893 223.383,46.056 223,45.5C 222.501,39.5092 222.334,33.5092 222.5,27.5C 221.5,27.5 220.5,27.5 219.5,27.5C 219.5,26.5 219.5,25.5 219.5,24.5C 220.5,24.5 221.5,24.5 222.5,24.5C 222.5,21.8333 222.5,19.1667 222.5,16.5C 223.5,16.5 224.5,16.5 225.5,16.5 Z"/></g>
<g><path style="opacity:1" fill="#7589d5" d="M 214.5,24.5 C 215.461,26.2646 215.795,28.2646 215.5,30.5C 214.209,30.7373 213.209,30.404 212.5,29.5C 214.256,28.4479 214.923,26.7812 214.5,24.5 Z"/></g>
<g><path style="opacity:1" fill="#465dc4" d="M 64.5,27.5 C 64.3284,28.4916 64.6618,29.1583 65.5,29.5C 65.189,30.4778 64.5223,31.1445 63.5,31.5C 63.1667,33.5 62.8333,35.5 62.5,37.5C 62.3993,41.0728 63.066,44.4061 64.5,47.5C 61.8333,47.5 59.1667,47.5 56.5,47.5C 59.1667,39.8333 59.1667,32.1667 56.5,24.5C 58.5,24.5 60.5,24.5 62.5,24.5C 62.2852,26.1788 62.9519,27.1788 64.5,27.5 Z"/></g>
<g><path style="opacity:1" fill="#3752c0" d="M 100.5,43.5 C 100.804,44.1499 101.137,44.8165 101.5,45.5C 98.9135,46.48 96.2469,46.8134 93.5,46.5C 93.5,45.5 93.5,44.5 93.5,43.5C 94.5,43.5 95.5,43.5 96.5,43.5C 96.5,38.1667 96.5,32.8333 96.5,27.5C 95.5,27.5 94.5,27.5 93.5,27.5C 93.5,26.5 93.5,25.5 93.5,24.5C 95.8333,24.5 98.1667,24.5 100.5,24.5C 100.628,27.7741 101.961,27.9408 104.5,25C 109.921,23.7201 111.921,25.8868 110.5,31.5C 109.5,31.5 108.5,31.5 107.5,31.5C 107.762,30.0222 107.429,28.6888 106.5,27.5C 104.228,28.4411 102.228,29.7745 100.5,31.5C 99.1905,35.6493 99.1905,39.6493 100.5,43.5 Z"/></g>
<g><path style="opacity:1" fill="#6a7bcf" d="M 2.5,13.5 C 5.62482,12.5206 8.95815,12.1872 12.5,12.5C 12.5,13.8333 12.5,15.1667 12.5,16.5C 11.5,16.5 10.5,16.5 9.5,16.5C 9.5,20.1667 9.5,23.8333 9.5,27.5C 13.5,27.5 17.5,27.5 21.5,27.5C 17.5034,28.0669 13.5034,28.9002 9.5,30C 13.6877,30.1762 17.6877,30.6762 21.5,31.5C 17.5,31.5 13.5,31.5 9.5,31.5C 9.5,35.5 9.5,39.5 9.5,43.5C 8.01161,34.3743 7.34494,25.0409 7.5,15.5C 8.97782,15.762 10.3112,15.4287 11.5,14.5C 8.57186,13.5159 5.57186,13.1826 2.5,13.5 Z"/></g>
<g><path style="opacity:1" fill="#b5bfe7" d="M 85.5,24.5 C 87.4563,30.412 88.1229,36.7453 87.5,43.5C 88.5,43.5 89.5,43.5 90.5,43.5C 90.5,44.8333 90.5,46.1667 90.5,47.5C 87.1667,47.5 83.8333,47.5 80.5,47.5C 80.1568,45.5168 80.8235,44.1834 82.5,43.5C 82.1961,44.1499 81.8627,44.8165 81.5,45.5C 84.1667,46.8333 86.8333,46.8333 89.5,45.5C 88.675,44.6143 87.675,44.281 86.5,44.5C 86.7934,37.7446 86.4601,31.0779 85.5,24.5 Z"/></g>
<g><path style="opacity:1" fill="#8f9fdc" d="M 68.5,28.5 C 69.209,27.596 70.209,27.2627 71.5,27.5C 72.1167,33.5982 71.45,39.2649 69.5,44.5C 70.1191,41.7521 70.4525,38.9188 70.5,36C 70.4752,33.0706 69.8086,30.5706 68.5,28.5 Z"/></g>
<g><path style="opacity:1" fill="#3952c0" d="M 115.5,24.5 C 120.179,24.3342 124.845,24.5008 129.5,25C 130,25.5 130.5,26 131,26.5C 131.667,32.5 131.667,38.5 131,44.5C 130.626,45.4162 130.126,46.2496 129.5,47C 125.167,47.6667 120.833,47.6667 116.5,47C 116,46.5 115.5,46 115,45.5C 114.205,38.4197 114.372,31.4197 115.5,24.5 Z"/></g>
<g><path style="opacity:1" fill="#7d90d6" d="M 118.5,27.5 C 118.5,32.8333 118.5,38.1667 118.5,43.5C 121.5,43.5 124.5,43.5 127.5,43.5C 127.5,38.1667 127.5,32.8333 127.5,27.5C 128.489,32.9753 128.822,38.642 128.5,44.5C 124.833,44.5 121.167,44.5 117.5,44.5C 117.178,38.642 117.511,32.9753 118.5,27.5 Z"/></g>
<g><path style="opacity:1" fill="#f5f6fc" d="M 118.5,27.5 C 121.5,27.5 124.5,27.5 127.5,27.5C 127.5,32.8333 127.5,38.1667 127.5,43.5C 124.5,43.5 121.5,43.5 118.5,43.5C 118.5,38.1667 118.5,32.8333 118.5,27.5 Z"/></g>
<g><path style="opacity:1" fill="#6d82d1" d="M 203.5,27.5 C 203.5,32.8333 203.5,38.1667 203.5,43.5C 206.855,43.9086 209.855,43.2419 212.5,41.5C 212.5,42.5 212.5,43.5 212.5,44.5C 209.167,44.5 205.833,44.5 202.5,44.5C 202.178,38.642 202.511,32.9753 203.5,27.5 Z"/></g>
<g><path style="opacity:1" fill="#8a9adb" d="M 256.5,27.5 C 257.489,32.9753 257.822,38.642 257.5,44.5C 256.5,44.5 255.5,44.5 254.5,44.5C 256.379,39.1299 257.045,33.4632 256.5,27.5 Z"/></g>
<g><path style="opacity:1" fill="#3450bf" d="M 271.5,31.5 C 270.5,31.5 269.5,31.5 268.5,31.5C 268.5,30.1667 268.5,28.8333 268.5,27.5C 266.62,27.2291 265.287,27.8958 264.5,29.5C 262.983,29.5106 261.816,30.1772 261,31.5C 260.188,35.6888 260.355,39.6888 261.5,43.5C 261.804,44.1499 262.137,44.8165 262.5,45.5C 261.167,45.8333 259.833,46.1667 258.5,46.5C 256.667,46.4146 255.334,45.7479 254.5,44.5C 255.5,44.5 256.5,44.5 257.5,44.5C 257.822,38.642 257.489,32.9753 256.5,27.5C 254.952,27.1788 254.285,26.1788 254.5,24.5C 256.5,24.5 258.5,24.5 260.5,24.5C 260.281,25.675 260.614,26.675 261.5,27.5C 264.232,25.4538 267.232,24.6205 270.5,25C 271.423,27.0408 271.756,29.2075 271.5,31.5 Z"/></g>
<g><path style="opacity:1" fill="#8e9fdb" d="M 271.5,31.5 C 270.432,32.4345 269.099,32.7678 267.5,32.5C 267.657,31.1266 267.49,29.7932 267,28.5C 266.329,29.2524 265.496,29.5858 264.5,29.5C 265.287,27.8958 266.62,27.2291 268.5,27.5C 268.5,28.8333 268.5,30.1667 268.5,31.5C 269.5,31.5 270.5,31.5 271.5,31.5 Z"/></g>
<g><path style="opacity:1" fill="#3b54c1" d="M 193.5,24.5 C 193.783,25.2891 194.283,25.9558 195,26.5C 195.499,32.4908 195.666,38.4908 195.5,44.5C 195.047,45.4584 194.381,46.2917 193.5,47C 189.167,47.6667 184.833,47.6667 180.5,47C 179.874,46.2496 179.374,45.4162 179,44.5C 178.207,38.1151 178.374,31.7818 179.5,25.5C 184.12,24.5067 188.786,24.1734 193.5,24.5 Z"/></g>
<g><path style="opacity:1" fill="#7f90d7" d="M 182.5,27.5 C 182.5,32.8333 182.5,38.1667 182.5,43.5C 185.5,43.5 188.5,43.5 191.5,43.5C 191.5,38.1667 191.5,32.8333 191.5,27.5C 192.489,32.9753 192.822,38.642 192.5,44.5C 188.833,44.5 185.167,44.5 181.5,44.5C 181.178,38.642 181.511,32.9753 182.5,27.5 Z"/></g>
<g><path style="opacity:1" fill="#f7f8fc" d="M 182.5,27.5 C 185.5,27.5 188.5,27.5 191.5,27.5C 191.5,32.8333 191.5,38.1667 191.5,43.5C 188.5,43.5 185.5,43.5 182.5,43.5C 182.5,38.1667 182.5,32.8333 182.5,27.5 Z"/></g>
<g><path style="opacity:1" fill="#bdc6ea" d="M 193.5,24.5 C 194.496,24.4142 195.329,24.7476 196,25.5C 196.82,32.0137 196.653,38.3471 195.5,44.5C 195.666,38.4908 195.499,32.4908 195,26.5C 194.283,25.9558 193.783,25.2891 193.5,24.5 Z"/></g>
<g><path style="opacity:1" fill="#2d4cbd" d="M 85.5,24.5 C 86.4601,31.0779 86.7934,37.7446 86.5,44.5C 87.675,44.281 88.675,44.6143 89.5,45.5C 86.8333,46.8333 84.1667,46.8333 81.5,45.5C 81.8627,44.8165 82.1961,44.1499 82.5,43.5C 83.4881,38.3595 83.8214,33.0262 83.5,27.5C 81.6203,27.2291 80.287,27.8958 79.5,29.5C 78.5084,29.3284 77.8417,29.6618 77.5,30.5C 76.5041,30.4142 75.6708,30.7476 75,31.5C 74.8333,33.6667 74.6667,35.8333 74.5,38C 74.5332,40.6103 75.1999,42.777 76.5,44.5C 75.8478,45.7251 74.6811,46.3917 73,46.5C 71.3189,46.3917 70.1522,45.7251 69.5,44.5C 71.45,39.2649 72.1167,33.5982 71.5,27.5C 70.209,27.2627 69.209,27.596 68.5,28.5C 67.391,28.5569 66.391,28.8902 65.5,29.5C 64.6618,29.1583 64.3284,28.4916 64.5,27.5C 68.4512,23.6603 72.2845,23.6603 76,27.5C 78.7414,25.2157 81.9081,24.2157 85.5,24.5 Z"/></g>
<g><path style="opacity:1" fill="#92a1db" d="M 82.5,43.5 C 82.6659,38.4889 82.4993,33.4889 82,28.5C 81.3292,29.2524 80.4959,29.5858 79.5,29.5C 80.287,27.8958 81.6203,27.2291 83.5,27.5C 83.8214,33.0262 83.4881,38.3595 82.5,43.5 Z"/></g>
<g><path style="opacity:1" fill="#3e56c1" d="M 49.5,43.5 C 50.0906,44.1515 50.7573,44.8182 51.5,45.5C 45.5368,46.4959 39.5368,46.8293 33.5,46.5C 32.3659,44.0336 32.1993,41.367 33,38.5C 36.75,36.0411 40.5834,33.7078 44.5,31.5C 45.4287,30.3112 45.762,28.9778 45.5,27.5C 41.318,27.3204 37.318,27.987 33.5,29.5C 33.5,27.8333 33.5,26.1667 33.5,24.5C 38.5649,24.219 43.5649,24.5524 48.5,25.5C 49.4959,31.4632 49.8293,37.4632 49.5,43.5 Z"/></g>
<g><path style="opacity:1" fill="#c0c8ea" d="M 77.5,30.5 C 75.2473,34.9591 74.914,39.6257 76.5,44.5C 75.1999,42.777 74.5332,40.6103 74.5,38C 74.6667,35.8333 74.8333,33.6667 75,31.5C 75.6708,30.7476 76.5041,30.4142 77.5,30.5 Z"/></g>
<g><path style="opacity:1" fill="#e6e8f7" d="M 44.5,34.5 C 45.4794,37.6248 45.8128,40.9581 45.5,44.5C 42.5,44.5 39.5,44.5 36.5,44.5C 36.3398,42.8008 36.5065,41.1341 37,39.5C 39.4795,37.6859 41.9795,36.0192 44.5,34.5 Z"/></g>
<g><path style="opacity:1" fill="#3e56c1" d="M 2.5,13.5 C 5.57186,13.1826 8.57186,13.5159 11.5,14.5C 10.3112,15.4287 8.97782,15.762 7.5,15.5C 7.34494,25.0409 8.01161,34.3743 9.5,43.5C 10.8062,44.4674 11.4729,45.8007 11.5,47.5C 8.5,47.5 5.5,47.5 2.5,47.5C 2.5,46.5 2.5,45.5 2.5,44.5C 3.5,44.5 4.5,44.5 5.5,44.5C 5.5,34.8333 5.5,25.1667 5.5,15.5C 4.5,15.5 3.5,15.5 2.5,15.5C 2.5,14.8333 2.5,14.1667 2.5,13.5 Z"/></g>
<g><path style="opacity:1" fill="#3a54c1" d="M 214.5,24.5 C 214.923,26.7812 214.256,28.4479 212.5,29.5C 210.012,27.6122 207.012,26.9455 203.5,27.5C 202.511,32.9753 202.178,38.642 202.5,44.5C 205.833,44.5 209.167,44.5 212.5,44.5C 212.5,43.5 212.5,42.5 212.5,41.5C 213.167,41.5 213.833,41.5 214.5,41.5C 214.5,43.1667 214.5,44.8333 214.5,46.5C 210.167,46.5 205.833,46.5 201.5,46.5C 200.778,46.0825 200.278,45.4158 200,44.5C 199.333,38.5 199.333,32.5 200,26.5C 200.5,26 201,25.5 201.5,25C 205.821,24.501 210.154,24.3343 214.5,24.5 Z"/></g>
<g><path style="opacity:1" fill="#3b54c1" d="M 248.5,24.5 C 248.783,25.2891 249.283,25.9558 250,26.5C 250.667,32.5 250.667,38.5 250,44.5C 249.626,45.4162 249.126,46.2496 248.5,47C 244.167,47.6667 239.833,47.6667 235.5,47C 235,46.5 234.5,46 234,45.5C 233.179,38.6536 233.346,31.987 234.5,25.5C 239.07,24.559 243.737,24.2256 248.5,24.5 Z"/></g>
<g><path style="opacity:1" fill="#7e91d7" d="M 237.5,27.5 C 237.5,32.8333 237.5,38.1667 237.5,43.5C 240.5,43.5 243.5,43.5 246.5,43.5C 246.5,38.1667 246.5,32.8333 246.5,27.5C 247.489,32.9753 247.822,38.642 247.5,44.5C 243.833,44.5 240.167,44.5 236.5,44.5C 236.178,38.642 236.511,32.9753 237.5,27.5 Z"/></g>
<g><path style="opacity:1" fill="#f6f7fc" d="M 237.5,27.5 C 240.5,27.5 243.5,27.5 246.5,27.5C 246.5,32.8333 246.5,38.1667 246.5,43.5C 243.5,43.5 240.5,43.5 237.5,43.5C 237.5,38.1667 237.5,32.8333 237.5,27.5 Z"/></g>
<g><path style="opacity:1" fill="#8394d7" d="M 49.5,43.5 C 50.5,43.5 51.5,43.5 52.5,43.5C 52.5,44.8333 52.5,46.1667 52.5,47.5C 45.9779,47.8235 39.6446,47.4902 33.5,46.5C 39.5368,46.8293 45.5368,46.4959 51.5,45.5C 50.7573,44.8182 50.0906,44.1515 49.5,43.5 Z"/></g>
<g><path style="opacity:1" fill="#8a9ada" d="M 69.5,44.5 C 70.1522,45.7251 71.3189,46.3917 73,46.5C 74.6811,46.3917 75.8478,45.7251 76.5,44.5C 77.404,45.209 77.7373,46.209 77.5,47.5C 74.5,47.5 71.5,47.5 68.5,47.5C 68.2627,46.209 68.596,45.209 69.5,44.5 Z"/></g>
<g><path style="opacity:1" fill="#8899d9" d="M 100.5,43.5 C 102.176,44.1834 102.843,45.5168 102.5,47.5C 99.2869,47.81 96.2869,47.4767 93.5,46.5C 96.2469,46.8134 98.9135,46.48 101.5,45.5C 101.137,44.8165 100.804,44.1499 100.5,43.5 Z"/></g>
<g><path style="opacity:1" fill="#7f91d6" d="M 214.5,41.5 C 215.461,43.2646 215.795,45.2646 215.5,47.5C 210.637,47.8195 205.97,47.4861 201.5,46.5C 205.833,46.5 210.167,46.5 214.5,46.5C 214.5,44.8333 214.5,43.1667 214.5,41.5 Z"/></g>
<g><path style="opacity:1" fill="#8697d8" d="M 229.5,44.5 C 230.404,45.209 230.737,46.209 230.5,47.5C 228.265,47.7947 226.265,47.4614 224.5,46.5C 226.781,46.9227 228.448,46.256 229.5,44.5 Z"/></g>
<g><path style="opacity:1" fill="#93a2dc" d="M 261.5,43.5 C 263.176,44.1834 263.843,45.5168 263.5,47.5C 260.167,47.5 256.833,47.5 253.5,47.5C 253.263,46.209 253.596,45.209 254.5,44.5C 255.334,45.7479 256.667,46.4146 258.5,46.5C 259.833,46.1667 261.167,45.8333 262.5,45.5C 262.137,44.8165 261.804,44.1499 261.5,43.5 Z"/></g>
</svg>
